<mxfile host="app.diagrams.net" modified="2023-04-01T23:32:08.846Z" agent="Mozilla/5.0 (X11; Linux x86_64) AppleWebKit/537.36 (KHTML, like Gecko) Chrome/111.0.0.0 Safari/537.36" etag="-tIUUXabyZcHEhdLwtDe" version="21.1.2" type="device">
  <diagram name="PÃ¡gina-1" id="m5lPAKgLY5H8WP8fl9Tt">
    <mxGraphModel dx="2158" dy="534" grid="1" gridSize="10" guides="1" tooltips="1" connect="1" arrows="1" fold="1" page="1" pageScale="1" pageWidth="1169" pageHeight="827" math="0" shadow="0">
      <root>
        <mxCell id="0" />
        <mxCell id="1" parent="0" />
        <mxCell id="gXaUUz2raYhDpuN3xTJB-1" value="a" style="rounded=0;whiteSpace=wrap;html=1;labelBackgroundColor=none;fillColor=none;" parent="1" vertex="1">
          <mxGeometry x="60" y="270" width="120" height="30" as="geometry" />
        </mxCell>
        <mxCell id="gXaUUz2raYhDpuN3xTJB-2" value="0" style="text;html=1;strokeColor=none;fillColor=none;align=center;verticalAlign=middle;whiteSpace=wrap;rounded=0;fontStyle=1;fontSize=15;" parent="1" vertex="1">
          <mxGeometry y="270" width="60" height="30" as="geometry" />
        </mxCell>
        <mxCell id="gXaUUz2raYhDpuN3xTJB-5" value="b" style="rounded=0;whiteSpace=wrap;html=1;labelBackgroundColor=none;fillColor=none;" parent="1" vertex="1">
          <mxGeometry x="60" y="300" width="120" height="30" as="geometry" />
        </mxCell>
        <mxCell id="gXaUUz2raYhDpuN3xTJB-6" value="c" style="rounded=0;whiteSpace=wrap;html=1;labelBackgroundColor=none;fillColor=none;" parent="1" vertex="1">
          <mxGeometry x="60" y="330" width="120" height="30" as="geometry" />
        </mxCell>
        <mxCell id="gXaUUz2raYhDpuN3xTJB-7" value="d" style="rounded=0;whiteSpace=wrap;html=1;labelBackgroundColor=none;fillColor=none;" parent="1" vertex="1">
          <mxGeometry x="60" y="360" width="120" height="30" as="geometry" />
        </mxCell>
        <mxCell id="gXaUUz2raYhDpuN3xTJB-8" value="e" style="rounded=0;whiteSpace=wrap;html=1;labelBackgroundColor=none;fillColor=none;" parent="1" vertex="1">
          <mxGeometry x="60" y="390" width="120" height="30" as="geometry" />
        </mxCell>
        <mxCell id="gXaUUz2raYhDpuN3xTJB-9" value="f" style="rounded=0;whiteSpace=wrap;html=1;labelBackgroundColor=none;fillColor=none;" parent="1" vertex="1">
          <mxGeometry x="60" y="420" width="120" height="30" as="geometry" />
        </mxCell>
        <mxCell id="gXaUUz2raYhDpuN3xTJB-10" value="g" style="rounded=0;whiteSpace=wrap;html=1;labelBackgroundColor=none;fillColor=none;" parent="1" vertex="1">
          <mxGeometry x="60" y="450" width="120" height="30" as="geometry" />
        </mxCell>
        <mxCell id="gXaUUz2raYhDpuN3xTJB-11" value="h" style="rounded=0;whiteSpace=wrap;html=1;labelBackgroundColor=none;fillColor=none;" parent="1" vertex="1">
          <mxGeometry x="60" y="480" width="120" height="30" as="geometry" />
        </mxCell>
        <mxCell id="gXaUUz2raYhDpuN3xTJB-12" value="i" style="rounded=0;whiteSpace=wrap;html=1;labelBackgroundColor=none;fillColor=none;" parent="1" vertex="1">
          <mxGeometry x="60" y="510" width="120" height="30" as="geometry" />
        </mxCell>
        <mxCell id="gXaUUz2raYhDpuN3xTJB-13" value="j" style="rounded=0;whiteSpace=wrap;html=1;labelBackgroundColor=none;fillColor=none;" parent="1" vertex="1">
          <mxGeometry x="60" y="540" width="120" height="30" as="geometry" />
        </mxCell>
        <mxCell id="gXaUUz2raYhDpuN3xTJB-14" value="k" style="rounded=0;whiteSpace=wrap;html=1;labelBackgroundColor=none;fillColor=none;" parent="1" vertex="1">
          <mxGeometry x="60" y="570" width="120" height="30" as="geometry" />
        </mxCell>
        <mxCell id="gXaUUz2raYhDpuN3xTJB-15" value="l" style="rounded=0;whiteSpace=wrap;html=1;labelBackgroundColor=none;fillColor=none;" parent="1" vertex="1">
          <mxGeometry x="60" y="600" width="120" height="30" as="geometry" />
        </mxCell>
        <mxCell id="gXaUUz2raYhDpuN3xTJB-16" value="1" style="text;html=1;strokeColor=none;fillColor=none;align=center;verticalAlign=middle;whiteSpace=wrap;rounded=0;fontStyle=1;fontSize=15;" parent="1" vertex="1">
          <mxGeometry y="300" width="60" height="30" as="geometry" />
        </mxCell>
        <mxCell id="gXaUUz2raYhDpuN3xTJB-17" value="2" style="text;html=1;strokeColor=none;fillColor=none;align=center;verticalAlign=middle;whiteSpace=wrap;rounded=0;fontStyle=1;fontSize=15;" parent="1" vertex="1">
          <mxGeometry y="330" width="60" height="30" as="geometry" />
        </mxCell>
        <mxCell id="gXaUUz2raYhDpuN3xTJB-18" value="3" style="text;html=1;strokeColor=none;fillColor=none;align=center;verticalAlign=middle;whiteSpace=wrap;rounded=0;fontStyle=1;fontSize=15;" parent="1" vertex="1">
          <mxGeometry y="360" width="60" height="30" as="geometry" />
        </mxCell>
        <mxCell id="gXaUUz2raYhDpuN3xTJB-20" value="4" style="text;html=1;strokeColor=none;fillColor=none;align=center;verticalAlign=middle;whiteSpace=wrap;rounded=0;fontStyle=1;fontSize=15;" parent="1" vertex="1">
          <mxGeometry y="390" width="60" height="30" as="geometry" />
        </mxCell>
        <mxCell id="gXaUUz2raYhDpuN3xTJB-21" value="5" style="text;html=1;strokeColor=none;fillColor=none;align=center;verticalAlign=middle;whiteSpace=wrap;rounded=0;fontStyle=1;fontSize=15;" parent="1" vertex="1">
          <mxGeometry y="420" width="60" height="30" as="geometry" />
        </mxCell>
        <mxCell id="gXaUUz2raYhDpuN3xTJB-22" value="6" style="text;html=1;strokeColor=none;fillColor=none;align=center;verticalAlign=middle;whiteSpace=wrap;rounded=0;fontStyle=1;fontSize=15;" parent="1" vertex="1">
          <mxGeometry y="450" width="60" height="30" as="geometry" />
        </mxCell>
        <mxCell id="gXaUUz2raYhDpuN3xTJB-23" value="7" style="text;html=1;strokeColor=none;fillColor=none;align=center;verticalAlign=middle;whiteSpace=wrap;rounded=0;fontStyle=1;fontSize=15;" parent="1" vertex="1">
          <mxGeometry y="480" width="60" height="30" as="geometry" />
        </mxCell>
        <mxCell id="gXaUUz2raYhDpuN3xTJB-24" value="8" style="text;html=1;strokeColor=none;fillColor=none;align=center;verticalAlign=middle;whiteSpace=wrap;rounded=0;fontStyle=1;fontSize=15;" parent="1" vertex="1">
          <mxGeometry y="510" width="60" height="30" as="geometry" />
        </mxCell>
        <mxCell id="gXaUUz2raYhDpuN3xTJB-25" value="9" style="text;html=1;strokeColor=none;fillColor=none;align=center;verticalAlign=middle;whiteSpace=wrap;rounded=0;fontStyle=1;fontSize=15;" parent="1" vertex="1">
          <mxGeometry y="540" width="60" height="30" as="geometry" />
        </mxCell>
        <mxCell id="gXaUUz2raYhDpuN3xTJB-26" value="10" style="text;html=1;strokeColor=none;fillColor=none;align=center;verticalAlign=middle;whiteSpace=wrap;rounded=0;fontStyle=1;fontSize=15;" parent="1" vertex="1">
          <mxGeometry y="570" width="60" height="30" as="geometry" />
        </mxCell>
        <mxCell id="gXaUUz2raYhDpuN3xTJB-27" value="11" style="text;html=1;strokeColor=none;fillColor=none;align=center;verticalAlign=middle;whiteSpace=wrap;rounded=0;fontStyle=1;fontSize=15;" parent="1" vertex="1">
          <mxGeometry y="600" width="60" height="30" as="geometry" />
        </mxCell>
        <mxCell id="gXaUUz2raYhDpuN3xTJB-28" value="m" style="rounded=0;whiteSpace=wrap;html=1;labelBackgroundColor=none;fillColor=none;" parent="1" vertex="1">
          <mxGeometry x="60" y="630" width="120" height="30" as="geometry" />
        </mxCell>
        <mxCell id="gXaUUz2raYhDpuN3xTJB-29" value="n" style="rounded=0;whiteSpace=wrap;html=1;labelBackgroundColor=none;fillColor=none;" parent="1" vertex="1">
          <mxGeometry x="60" y="660" width="120" height="30" as="geometry" />
        </mxCell>
        <mxCell id="gXaUUz2raYhDpuN3xTJB-30" value="o" style="rounded=0;whiteSpace=wrap;html=1;labelBackgroundColor=none;fillColor=none;" parent="1" vertex="1">
          <mxGeometry x="60" y="690" width="120" height="30" as="geometry" />
        </mxCell>
        <mxCell id="gXaUUz2raYhDpuN3xTJB-31" value="p" style="rounded=0;whiteSpace=wrap;html=1;labelBackgroundColor=none;fillColor=none;" parent="1" vertex="1">
          <mxGeometry x="60" y="720" width="120" height="30" as="geometry" />
        </mxCell>
        <mxCell id="gXaUUz2raYhDpuN3xTJB-32" value="q" style="rounded=0;whiteSpace=wrap;html=1;labelBackgroundColor=none;fillColor=none;" parent="1" vertex="1">
          <mxGeometry x="60" y="750" width="120" height="30" as="geometry" />
        </mxCell>
        <mxCell id="gXaUUz2raYhDpuN3xTJB-33" value="r" style="rounded=0;whiteSpace=wrap;html=1;labelBackgroundColor=none;fillColor=none;" parent="1" vertex="1">
          <mxGeometry x="60" y="780" width="120" height="30" as="geometry" />
        </mxCell>
        <mxCell id="gXaUUz2raYhDpuN3xTJB-34" value="s" style="rounded=0;whiteSpace=wrap;html=1;labelBackgroundColor=none;fillColor=none;" parent="1" vertex="1">
          <mxGeometry x="60" y="810" width="120" height="30" as="geometry" />
        </mxCell>
        <mxCell id="gXaUUz2raYhDpuN3xTJB-35" value="t" style="rounded=0;whiteSpace=wrap;html=1;labelBackgroundColor=none;fillColor=none;" parent="1" vertex="1">
          <mxGeometry x="60" y="840" width="120" height="30" as="geometry" />
        </mxCell>
        <mxCell id="gXaUUz2raYhDpuN3xTJB-36" value="u" style="rounded=0;whiteSpace=wrap;html=1;labelBackgroundColor=none;fillColor=none;" parent="1" vertex="1">
          <mxGeometry x="60" y="870" width="120" height="30" as="geometry" />
        </mxCell>
        <mxCell id="gXaUUz2raYhDpuN3xTJB-37" value="v" style="rounded=0;whiteSpace=wrap;html=1;labelBackgroundColor=none;fillColor=none;" parent="1" vertex="1">
          <mxGeometry x="60" y="900" width="120" height="30" as="geometry" />
        </mxCell>
        <mxCell id="gXaUUz2raYhDpuN3xTJB-38" value="w" style="rounded=0;whiteSpace=wrap;html=1;labelBackgroundColor=none;fillColor=none;" parent="1" vertex="1">
          <mxGeometry x="60" y="930" width="120" height="30" as="geometry" />
        </mxCell>
        <mxCell id="gXaUUz2raYhDpuN3xTJB-39" value="x" style="rounded=0;whiteSpace=wrap;html=1;labelBackgroundColor=none;fillColor=none;" parent="1" vertex="1">
          <mxGeometry x="60" y="960" width="120" height="30" as="geometry" />
        </mxCell>
        <mxCell id="gXaUUz2raYhDpuN3xTJB-40" value="12" style="text;html=1;strokeColor=none;fillColor=none;align=center;verticalAlign=middle;whiteSpace=wrap;rounded=0;fontStyle=1;fontSize=15;" parent="1" vertex="1">
          <mxGeometry y="630" width="60" height="30" as="geometry" />
        </mxCell>
        <mxCell id="gXaUUz2raYhDpuN3xTJB-41" value="13" style="text;html=1;strokeColor=none;fillColor=none;align=center;verticalAlign=middle;whiteSpace=wrap;rounded=0;fontStyle=1;fontSize=15;" parent="1" vertex="1">
          <mxGeometry y="660" width="60" height="30" as="geometry" />
        </mxCell>
        <mxCell id="gXaUUz2raYhDpuN3xTJB-42" value="14" style="text;html=1;strokeColor=none;fillColor=none;align=center;verticalAlign=middle;whiteSpace=wrap;rounded=0;fontStyle=1;fontSize=15;" parent="1" vertex="1">
          <mxGeometry y="690" width="60" height="30" as="geometry" />
        </mxCell>
        <mxCell id="gXaUUz2raYhDpuN3xTJB-43" value="15" style="text;html=1;strokeColor=none;fillColor=none;align=center;verticalAlign=middle;whiteSpace=wrap;rounded=0;fontStyle=1;fontSize=15;" parent="1" vertex="1">
          <mxGeometry y="720" width="60" height="30" as="geometry" />
        </mxCell>
        <mxCell id="gXaUUz2raYhDpuN3xTJB-44" value="16" style="text;html=1;strokeColor=none;fillColor=none;align=center;verticalAlign=middle;whiteSpace=wrap;rounded=0;fontStyle=1;fontSize=15;" parent="1" vertex="1">
          <mxGeometry y="750" width="60" height="30" as="geometry" />
        </mxCell>
        <mxCell id="gXaUUz2raYhDpuN3xTJB-45" value="17" style="text;html=1;strokeColor=none;fillColor=none;align=center;verticalAlign=middle;whiteSpace=wrap;rounded=0;fontStyle=1;fontSize=15;" parent="1" vertex="1">
          <mxGeometry y="780" width="60" height="30" as="geometry" />
        </mxCell>
        <mxCell id="gXaUUz2raYhDpuN3xTJB-46" value="18" style="text;html=1;strokeColor=none;fillColor=none;align=center;verticalAlign=middle;whiteSpace=wrap;rounded=0;fontStyle=1;fontSize=15;" parent="1" vertex="1">
          <mxGeometry y="810" width="60" height="30" as="geometry" />
        </mxCell>
        <mxCell id="gXaUUz2raYhDpuN3xTJB-47" value="19" style="text;html=1;strokeColor=none;fillColor=none;align=center;verticalAlign=middle;whiteSpace=wrap;rounded=0;fontStyle=1;fontSize=15;" parent="1" vertex="1">
          <mxGeometry y="840" width="60" height="30" as="geometry" />
        </mxCell>
        <mxCell id="gXaUUz2raYhDpuN3xTJB-48" value="20" style="text;html=1;strokeColor=none;fillColor=none;align=center;verticalAlign=middle;whiteSpace=wrap;rounded=0;fontStyle=1;fontSize=15;" parent="1" vertex="1">
          <mxGeometry y="870" width="60" height="30" as="geometry" />
        </mxCell>
        <mxCell id="gXaUUz2raYhDpuN3xTJB-49" value="21" style="text;html=1;strokeColor=none;fillColor=none;align=center;verticalAlign=middle;whiteSpace=wrap;rounded=0;fontStyle=1;fontSize=15;" parent="1" vertex="1">
          <mxGeometry y="900" width="60" height="30" as="geometry" />
        </mxCell>
        <mxCell id="gXaUUz2raYhDpuN3xTJB-50" value="22" style="text;html=1;strokeColor=none;fillColor=none;align=center;verticalAlign=middle;whiteSpace=wrap;rounded=0;fontStyle=1;fontSize=15;" parent="1" vertex="1">
          <mxGeometry y="930" width="60" height="30" as="geometry" />
        </mxCell>
        <mxCell id="gXaUUz2raYhDpuN3xTJB-51" value="23" style="text;html=1;strokeColor=none;fillColor=none;align=center;verticalAlign=middle;whiteSpace=wrap;rounded=0;fontStyle=1;fontSize=15;" parent="1" vertex="1">
          <mxGeometry y="960" width="60" height="30" as="geometry" />
        </mxCell>
        <mxCell id="gXaUUz2raYhDpuN3xTJB-52" value="y" style="rounded=0;whiteSpace=wrap;html=1;labelBackgroundColor=none;fillColor=none;" parent="1" vertex="1">
          <mxGeometry x="60" y="990" width="120" height="30" as="geometry" />
        </mxCell>
        <mxCell id="gXaUUz2raYhDpuN3xTJB-53" value="z" style="rounded=0;whiteSpace=wrap;html=1;labelBackgroundColor=none;fillColor=none;" parent="1" vertex="1">
          <mxGeometry x="60" y="1020" width="120" height="30" as="geometry" />
        </mxCell>
        <mxCell id="gXaUUz2raYhDpuN3xTJB-55" value="24" style="text;html=1;strokeColor=none;fillColor=none;align=center;verticalAlign=middle;whiteSpace=wrap;rounded=0;fontStyle=1;fontSize=15;" parent="1" vertex="1">
          <mxGeometry y="990" width="60" height="30" as="geometry" />
        </mxCell>
        <mxCell id="gXaUUz2raYhDpuN3xTJB-56" value="25" style="text;html=1;strokeColor=none;fillColor=none;align=center;verticalAlign=middle;whiteSpace=wrap;rounded=0;fontStyle=1;fontSize=15;" parent="1" vertex="1">
          <mxGeometry y="1020" width="60" height="30" as="geometry" />
        </mxCell>
        <mxCell id="gXaUUz2raYhDpuN3xTJB-59" value="a" style="rounded=0;whiteSpace=wrap;html=1;" parent="1" vertex="1">
          <mxGeometry x="80" y="10" width="40" height="20" as="geometry" />
        </mxCell>
        <mxCell id="gXaUUz2raYhDpuN3xTJB-60" value="97" style="rounded=0;whiteSpace=wrap;html=1;" parent="1" vertex="1">
          <mxGeometry x="80" y="30" width="40" height="20" as="geometry" />
        </mxCell>
        <mxCell id="gXaUUz2raYhDpuN3xTJB-63" value="b" style="rounded=0;whiteSpace=wrap;html=1;" parent="1" vertex="1">
          <mxGeometry x="120" y="10" width="40" height="20" as="geometry" />
        </mxCell>
        <mxCell id="gXaUUz2raYhDpuN3xTJB-64" value="98" style="rounded=0;whiteSpace=wrap;html=1;" parent="1" vertex="1">
          <mxGeometry x="120" y="30" width="40" height="20" as="geometry" />
        </mxCell>
        <mxCell id="gXaUUz2raYhDpuN3xTJB-65" value="c" style="rounded=0;whiteSpace=wrap;html=1;" parent="1" vertex="1">
          <mxGeometry x="160" y="10" width="40" height="20" as="geometry" />
        </mxCell>
        <mxCell id="gXaUUz2raYhDpuN3xTJB-66" value="99" style="rounded=0;whiteSpace=wrap;html=1;" parent="1" vertex="1">
          <mxGeometry x="160" y="30" width="40" height="20" as="geometry" />
        </mxCell>
        <mxCell id="gXaUUz2raYhDpuN3xTJB-67" value="d" style="rounded=0;whiteSpace=wrap;html=1;" parent="1" vertex="1">
          <mxGeometry x="200" y="10" width="40" height="20" as="geometry" />
        </mxCell>
        <mxCell id="gXaUUz2raYhDpuN3xTJB-68" value="100" style="rounded=0;whiteSpace=wrap;html=1;" parent="1" vertex="1">
          <mxGeometry x="200" y="30" width="40" height="20" as="geometry" />
        </mxCell>
        <mxCell id="gXaUUz2raYhDpuN3xTJB-69" value="e" style="rounded=0;whiteSpace=wrap;html=1;" parent="1" vertex="1">
          <mxGeometry x="240" y="10" width="40" height="20" as="geometry" />
        </mxCell>
        <mxCell id="gXaUUz2raYhDpuN3xTJB-70" value="101" style="rounded=0;whiteSpace=wrap;html=1;" parent="1" vertex="1">
          <mxGeometry x="240" y="30" width="40" height="20" as="geometry" />
        </mxCell>
        <mxCell id="gXaUUz2raYhDpuN3xTJB-71" value="f" style="rounded=0;whiteSpace=wrap;html=1;" parent="1" vertex="1">
          <mxGeometry x="280" y="10" width="40" height="20" as="geometry" />
        </mxCell>
        <mxCell id="gXaUUz2raYhDpuN3xTJB-72" value="102" style="rounded=0;whiteSpace=wrap;html=1;" parent="1" vertex="1">
          <mxGeometry x="280" y="30" width="40" height="20" as="geometry" />
        </mxCell>
        <mxCell id="gXaUUz2raYhDpuN3xTJB-73" value="g" style="rounded=0;whiteSpace=wrap;html=1;" parent="1" vertex="1">
          <mxGeometry x="320" y="10" width="40" height="20" as="geometry" />
        </mxCell>
        <mxCell id="gXaUUz2raYhDpuN3xTJB-74" value="103" style="rounded=0;whiteSpace=wrap;html=1;" parent="1" vertex="1">
          <mxGeometry x="320" y="30" width="40" height="20" as="geometry" />
        </mxCell>
        <mxCell id="gXaUUz2raYhDpuN3xTJB-75" value="h" style="rounded=0;whiteSpace=wrap;html=1;" parent="1" vertex="1">
          <mxGeometry x="360" y="10" width="40" height="20" as="geometry" />
        </mxCell>
        <mxCell id="gXaUUz2raYhDpuN3xTJB-76" value="104" style="rounded=0;whiteSpace=wrap;html=1;" parent="1" vertex="1">
          <mxGeometry x="360" y="30" width="40" height="20" as="geometry" />
        </mxCell>
        <mxCell id="gXaUUz2raYhDpuN3xTJB-77" value="i" style="rounded=0;whiteSpace=wrap;html=1;" parent="1" vertex="1">
          <mxGeometry x="400" y="10" width="40" height="20" as="geometry" />
        </mxCell>
        <mxCell id="gXaUUz2raYhDpuN3xTJB-78" value="105" style="rounded=0;whiteSpace=wrap;html=1;" parent="1" vertex="1">
          <mxGeometry x="400" y="30" width="40" height="20" as="geometry" />
        </mxCell>
        <mxCell id="gXaUUz2raYhDpuN3xTJB-79" value="j" style="rounded=0;whiteSpace=wrap;html=1;" parent="1" vertex="1">
          <mxGeometry x="440" y="10" width="40" height="20" as="geometry" />
        </mxCell>
        <mxCell id="gXaUUz2raYhDpuN3xTJB-80" value="106" style="rounded=0;whiteSpace=wrap;html=1;" parent="1" vertex="1">
          <mxGeometry x="440" y="30" width="40" height="20" as="geometry" />
        </mxCell>
        <mxCell id="gXaUUz2raYhDpuN3xTJB-81" value="k" style="rounded=0;whiteSpace=wrap;html=1;" parent="1" vertex="1">
          <mxGeometry x="480" y="10" width="40" height="20" as="geometry" />
        </mxCell>
        <mxCell id="gXaUUz2raYhDpuN3xTJB-82" value="107" style="rounded=0;whiteSpace=wrap;html=1;" parent="1" vertex="1">
          <mxGeometry x="480" y="30" width="40" height="20" as="geometry" />
        </mxCell>
        <mxCell id="gXaUUz2raYhDpuN3xTJB-83" value="l" style="rounded=0;whiteSpace=wrap;html=1;" parent="1" vertex="1">
          <mxGeometry x="520" y="10" width="40" height="20" as="geometry" />
        </mxCell>
        <mxCell id="gXaUUz2raYhDpuN3xTJB-84" value="108" style="rounded=0;whiteSpace=wrap;html=1;" parent="1" vertex="1">
          <mxGeometry x="520" y="30" width="40" height="20" as="geometry" />
        </mxCell>
        <mxCell id="gXaUUz2raYhDpuN3xTJB-85" value="m" style="rounded=0;whiteSpace=wrap;html=1;" parent="1" vertex="1">
          <mxGeometry x="560" y="10" width="40" height="20" as="geometry" />
        </mxCell>
        <mxCell id="gXaUUz2raYhDpuN3xTJB-86" value="109" style="rounded=0;whiteSpace=wrap;html=1;" parent="1" vertex="1">
          <mxGeometry x="560" y="30" width="40" height="20" as="geometry" />
        </mxCell>
        <mxCell id="gXaUUz2raYhDpuN3xTJB-87" value="n" style="rounded=0;whiteSpace=wrap;html=1;" parent="1" vertex="1">
          <mxGeometry x="600" y="10" width="40" height="20" as="geometry" />
        </mxCell>
        <mxCell id="gXaUUz2raYhDpuN3xTJB-88" value="110" style="rounded=0;whiteSpace=wrap;html=1;" parent="1" vertex="1">
          <mxGeometry x="600" y="30" width="40" height="20" as="geometry" />
        </mxCell>
        <mxCell id="gXaUUz2raYhDpuN3xTJB-89" value="o" style="rounded=0;whiteSpace=wrap;html=1;" parent="1" vertex="1">
          <mxGeometry x="640" y="10" width="40" height="20" as="geometry" />
        </mxCell>
        <mxCell id="gXaUUz2raYhDpuN3xTJB-90" value="111" style="rounded=0;whiteSpace=wrap;html=1;" parent="1" vertex="1">
          <mxGeometry x="640" y="30" width="40" height="20" as="geometry" />
        </mxCell>
        <mxCell id="gXaUUz2raYhDpuN3xTJB-91" value="p" style="rounded=0;whiteSpace=wrap;html=1;" parent="1" vertex="1">
          <mxGeometry x="680" y="10" width="40" height="20" as="geometry" />
        </mxCell>
        <mxCell id="gXaUUz2raYhDpuN3xTJB-92" value="112" style="rounded=0;whiteSpace=wrap;html=1;" parent="1" vertex="1">
          <mxGeometry x="680" y="30" width="40" height="20" as="geometry" />
        </mxCell>
        <mxCell id="gXaUUz2raYhDpuN3xTJB-93" value="q" style="rounded=0;whiteSpace=wrap;html=1;" parent="1" vertex="1">
          <mxGeometry x="720" y="10" width="40" height="20" as="geometry" />
        </mxCell>
        <mxCell id="gXaUUz2raYhDpuN3xTJB-94" value="113" style="rounded=0;whiteSpace=wrap;html=1;" parent="1" vertex="1">
          <mxGeometry x="720" y="30" width="40" height="20" as="geometry" />
        </mxCell>
        <mxCell id="gXaUUz2raYhDpuN3xTJB-95" value="r" style="rounded=0;whiteSpace=wrap;html=1;" parent="1" vertex="1">
          <mxGeometry x="760" y="10" width="40" height="20" as="geometry" />
        </mxCell>
        <mxCell id="gXaUUz2raYhDpuN3xTJB-96" value="114" style="rounded=0;whiteSpace=wrap;html=1;" parent="1" vertex="1">
          <mxGeometry x="760" y="30" width="40" height="20" as="geometry" />
        </mxCell>
        <mxCell id="gXaUUz2raYhDpuN3xTJB-97" value="s" style="rounded=0;whiteSpace=wrap;html=1;" parent="1" vertex="1">
          <mxGeometry x="800" y="10" width="40" height="20" as="geometry" />
        </mxCell>
        <mxCell id="gXaUUz2raYhDpuN3xTJB-98" value="115" style="rounded=0;whiteSpace=wrap;html=1;" parent="1" vertex="1">
          <mxGeometry x="800" y="30" width="40" height="20" as="geometry" />
        </mxCell>
        <mxCell id="gXaUUz2raYhDpuN3xTJB-99" value="t" style="rounded=0;whiteSpace=wrap;html=1;" parent="1" vertex="1">
          <mxGeometry x="840" y="10" width="40" height="20" as="geometry" />
        </mxCell>
        <mxCell id="gXaUUz2raYhDpuN3xTJB-100" value="116" style="rounded=0;whiteSpace=wrap;html=1;" parent="1" vertex="1">
          <mxGeometry x="840" y="30" width="40" height="20" as="geometry" />
        </mxCell>
        <mxCell id="gXaUUz2raYhDpuN3xTJB-101" value="u" style="rounded=0;whiteSpace=wrap;html=1;" parent="1" vertex="1">
          <mxGeometry x="880" y="10" width="40" height="20" as="geometry" />
        </mxCell>
        <mxCell id="gXaUUz2raYhDpuN3xTJB-102" value="117" style="rounded=0;whiteSpace=wrap;html=1;" parent="1" vertex="1">
          <mxGeometry x="880" y="30" width="40" height="20" as="geometry" />
        </mxCell>
        <mxCell id="gXaUUz2raYhDpuN3xTJB-103" value="v" style="rounded=0;whiteSpace=wrap;html=1;" parent="1" vertex="1">
          <mxGeometry x="920" y="10" width="40" height="20" as="geometry" />
        </mxCell>
        <mxCell id="gXaUUz2raYhDpuN3xTJB-104" value="118" style="rounded=0;whiteSpace=wrap;html=1;" parent="1" vertex="1">
          <mxGeometry x="920" y="30" width="40" height="20" as="geometry" />
        </mxCell>
        <mxCell id="gXaUUz2raYhDpuN3xTJB-105" value="w" style="rounded=0;whiteSpace=wrap;html=1;" parent="1" vertex="1">
          <mxGeometry x="960" y="10" width="40" height="20" as="geometry" />
        </mxCell>
        <mxCell id="gXaUUz2raYhDpuN3xTJB-106" value="119" style="rounded=0;whiteSpace=wrap;html=1;" parent="1" vertex="1">
          <mxGeometry x="960" y="30" width="40" height="20" as="geometry" />
        </mxCell>
        <mxCell id="gXaUUz2raYhDpuN3xTJB-107" value="x" style="rounded=0;whiteSpace=wrap;html=1;" parent="1" vertex="1">
          <mxGeometry x="1000" y="10" width="40" height="20" as="geometry" />
        </mxCell>
        <mxCell id="gXaUUz2raYhDpuN3xTJB-108" value="120" style="rounded=0;whiteSpace=wrap;html=1;" parent="1" vertex="1">
          <mxGeometry x="1000" y="30" width="40" height="20" as="geometry" />
        </mxCell>
        <mxCell id="gXaUUz2raYhDpuN3xTJB-109" value="y" style="rounded=0;whiteSpace=wrap;html=1;" parent="1" vertex="1">
          <mxGeometry x="1040" y="10" width="40" height="20" as="geometry" />
        </mxCell>
        <mxCell id="gXaUUz2raYhDpuN3xTJB-110" value="121" style="rounded=0;whiteSpace=wrap;html=1;" parent="1" vertex="1">
          <mxGeometry x="1040" y="30" width="40" height="20" as="geometry" />
        </mxCell>
        <mxCell id="gXaUUz2raYhDpuN3xTJB-111" value="z" style="rounded=0;whiteSpace=wrap;html=1;" parent="1" vertex="1">
          <mxGeometry x="1080" y="10" width="40" height="20" as="geometry" />
        </mxCell>
        <mxCell id="gXaUUz2raYhDpuN3xTJB-112" value="122" style="rounded=0;whiteSpace=wrap;html=1;" parent="1" vertex="1">
          <mxGeometry x="1080" y="30" width="40" height="20" as="geometry" />
        </mxCell>
        <mxCell id="gXaUUz2raYhDpuN3xTJB-114" value="(ASC_VALUE + 7) mod 26" style="rounded=0;whiteSpace=wrap;html=1;" parent="1" vertex="1">
          <mxGeometry x="80" y="70" width="160" height="40" as="geometry" />
        </mxCell>
        <mxCell id="gXaUUz2raYhDpuN3xTJB-118" value="&lt;span style=&quot;color: rgb(23, 43, 77); font-family: -apple-system, BlinkMacSystemFont, &amp;quot;Segoe UI&amp;quot;, Roboto, &amp;quot;Noto Sans&amp;quot;, Ubuntu, &amp;quot;Droid Sans&amp;quot;, &amp;quot;Helvetica Neue&amp;quot;, sans-serif; font-size: 14px; font-style: normal; font-variant-ligatures: normal; font-variant-caps: normal; font-weight: 400; letter-spacing: normal; orphans: 2; text-indent: 0px; text-transform: none; widows: 2; word-spacing: 0px; -webkit-text-stroke-width: 0px; background-color: rgb(255, 255, 255); text-decoration-thickness: initial; text-decoration-style: initial; text-decoration-color: initial; float: none; display: inline !important;&quot;&gt;Tabela ASCII&lt;/span&gt;" style="text;whiteSpace=wrap;html=1;align=center;verticalAlign=middle;" parent="1" vertex="1">
          <mxGeometry x="-20" y="10" width="90" height="40" as="geometry" />
        </mxCell>
        <mxCell id="gXaUUz2raYhDpuN3xTJB-119" value="&lt;span style=&quot;color: rgb(23, 43, 77); font-family: -apple-system, BlinkMacSystemFont, &amp;quot;Segoe UI&amp;quot;, Roboto, &amp;quot;Noto Sans&amp;quot;, Ubuntu, &amp;quot;Droid Sans&amp;quot;, &amp;quot;Helvetica Neue&amp;quot;, sans-serif; font-size: 14px; font-style: normal; font-variant-ligatures: normal; font-variant-caps: normal; font-weight: 400; letter-spacing: normal; orphans: 2; text-indent: 0px; text-transform: none; widows: 2; word-spacing: 0px; -webkit-text-stroke-width: 0px; background-color: rgb(255, 255, 255); text-decoration-thickness: initial; text-decoration-style: initial; text-decoration-color: initial; float: none; display: inline !important;&quot;&gt;FunÃ§Ã£o de DispersÃ£o&lt;/span&gt;" style="text;whiteSpace=wrap;html=1;align=center;verticalAlign=middle;" parent="1" vertex="1">
          <mxGeometry x="-20" y="70" width="90" height="40" as="geometry" />
        </mxCell>
        <mxCell id="gXaUUz2raYhDpuN3xTJB-120" value="a" style="rounded=0;whiteSpace=wrap;html=1;" parent="1" vertex="1">
          <mxGeometry x="80" y="130" width="110" height="20" as="geometry" />
        </mxCell>
        <mxCell id="gXaUUz2raYhDpuN3xTJB-121" value="(97+7) mod 26 = 0" style="rounded=0;whiteSpace=wrap;html=1;" parent="1" vertex="1">
          <mxGeometry x="80" y="150" width="110" height="20" as="geometry" />
        </mxCell>
        <mxCell id="gXaUUz2raYhDpuN3xTJB-122" value="b" style="rounded=0;whiteSpace=wrap;html=1;" parent="1" vertex="1">
          <mxGeometry x="190" y="130" width="110" height="20" as="geometry" />
        </mxCell>
        <mxCell id="gXaUUz2raYhDpuN3xTJB-123" value="(98+7) mod 26 = 1" style="rounded=0;whiteSpace=wrap;html=1;" parent="1" vertex="1">
          <mxGeometry x="190" y="150" width="110" height="20" as="geometry" />
        </mxCell>
        <mxCell id="gXaUUz2raYhDpuN3xTJB-124" value="&lt;span style=&quot;color: rgb(23, 43, 77); font-family: -apple-system, BlinkMacSystemFont, &amp;quot;Segoe UI&amp;quot;, Roboto, &amp;quot;Noto Sans&amp;quot;, Ubuntu, &amp;quot;Droid Sans&amp;quot;, &amp;quot;Helvetica Neue&amp;quot;, sans-serif; font-size: 14px; font-style: normal; font-variant-ligatures: normal; font-variant-caps: normal; font-weight: 400; letter-spacing: normal; orphans: 2; text-indent: 0px; text-transform: none; widows: 2; word-spacing: 0px; -webkit-text-stroke-width: 0px; background-color: rgb(255, 255, 255); text-decoration-thickness: initial; text-decoration-style: initial; text-decoration-color: initial; float: none; display: inline !important;&quot;&gt;...&lt;/span&gt;" style="text;whiteSpace=wrap;html=1;align=center;verticalAlign=middle;" parent="1" vertex="1">
          <mxGeometry x="300" y="130" width="20" height="40" as="geometry" />
        </mxCell>
        <mxCell id="gXaUUz2raYhDpuN3xTJB-125" value="&lt;span style=&quot;color: rgb(23, 43, 77); font-family: -apple-system, BlinkMacSystemFont, &amp;quot;Segoe UI&amp;quot;, Roboto, &amp;quot;Noto Sans&amp;quot;, Ubuntu, &amp;quot;Droid Sans&amp;quot;, &amp;quot;Helvetica Neue&amp;quot;, sans-serif; font-size: 14px; font-style: normal; font-variant-ligatures: normal; font-variant-caps: normal; font-weight: 400; letter-spacing: normal; orphans: 2; text-indent: 0px; text-transform: none; widows: 2; word-spacing: 0px; -webkit-text-stroke-width: 0px; background-color: rgb(255, 255, 255); text-decoration-thickness: initial; text-decoration-style: initial; text-decoration-color: initial; float: none; display: inline !important;&quot;&gt;...&lt;/span&gt;" style="text;whiteSpace=wrap;html=1;align=center;verticalAlign=middle;" parent="1" vertex="1">
          <mxGeometry x="320" y="130" width="20" height="40" as="geometry" />
        </mxCell>
        <mxCell id="gXaUUz2raYhDpuN3xTJB-126" value="&lt;span style=&quot;color: rgb(23, 43, 77); font-family: -apple-system, BlinkMacSystemFont, &amp;quot;Segoe UI&amp;quot;, Roboto, &amp;quot;Noto Sans&amp;quot;, Ubuntu, &amp;quot;Droid Sans&amp;quot;, &amp;quot;Helvetica Neue&amp;quot;, sans-serif; font-size: 14px; font-style: normal; font-variant-ligatures: normal; font-variant-caps: normal; font-weight: 400; letter-spacing: normal; orphans: 2; text-indent: 0px; text-transform: none; widows: 2; word-spacing: 0px; -webkit-text-stroke-width: 0px; background-color: rgb(255, 255, 255); text-decoration-thickness: initial; text-decoration-style: initial; text-decoration-color: initial; float: none; display: inline !important;&quot;&gt;...&lt;/span&gt;" style="text;whiteSpace=wrap;html=1;align=center;verticalAlign=middle;" parent="1" vertex="1">
          <mxGeometry x="340" y="130" width="20" height="40" as="geometry" />
        </mxCell>
        <mxCell id="gXaUUz2raYhDpuN3xTJB-127" value="z" style="rounded=0;whiteSpace=wrap;html=1;" parent="1" vertex="1">
          <mxGeometry x="380" y="130" width="120" height="20" as="geometry" />
        </mxCell>
        <mxCell id="gXaUUz2raYhDpuN3xTJB-128" value="(122+7) mod 26 = 26" style="rounded=0;whiteSpace=wrap;html=1;" parent="1" vertex="1">
          <mxGeometry x="380" y="150" width="120" height="20" as="geometry" />
        </mxCell>
        <mxCell id="gXaUUz2raYhDpuN3xTJB-129" value="&lt;span style=&quot;color: rgb(23, 43, 77); font-family: -apple-system, BlinkMacSystemFont, &amp;quot;Segoe UI&amp;quot;, Roboto, &amp;quot;Noto Sans&amp;quot;, Ubuntu, &amp;quot;Droid Sans&amp;quot;, &amp;quot;Helvetica Neue&amp;quot;, sans-serif; font-size: 14px; font-style: normal; font-variant-ligatures: normal; font-variant-caps: normal; font-weight: 400; letter-spacing: normal; orphans: 2; text-indent: 0px; text-transform: none; widows: 2; word-spacing: 0px; -webkit-text-stroke-width: 0px; background-color: rgb(255, 255, 255); text-decoration-thickness: initial; text-decoration-style: initial; text-decoration-color: initial; float: none; display: inline !important;&quot;&gt;...&lt;/span&gt;" style="text;whiteSpace=wrap;html=1;align=center;verticalAlign=middle;" parent="1" vertex="1">
          <mxGeometry x="360" y="130" width="20" height="40" as="geometry" />
        </mxCell>
        <mxCell id="gXaUUz2raYhDpuN3xTJB-130" value="" style="endArrow=classic;html=1;rounded=0;" parent="1" edge="1">
          <mxGeometry width="50" height="50" relative="1" as="geometry">
            <mxPoint x="190" y="284.88" as="sourcePoint" />
            <mxPoint x="240" y="284.88" as="targetPoint" />
          </mxGeometry>
        </mxCell>
        <mxCell id="gXaUUz2raYhDpuN3xTJB-131" value="" style="endArrow=classic;html=1;rounded=0;" parent="1" edge="1">
          <mxGeometry width="50" height="50" relative="1" as="geometry">
            <mxPoint x="190" y="314.88" as="sourcePoint" />
            <mxPoint x="240" y="314.88" as="targetPoint" />
          </mxGeometry>
        </mxCell>
        <mxCell id="gXaUUz2raYhDpuN3xTJB-132" value="" style="endArrow=classic;html=1;rounded=0;" parent="1" edge="1">
          <mxGeometry width="50" height="50" relative="1" as="geometry">
            <mxPoint x="190" y="344.88" as="sourcePoint" />
            <mxPoint x="240" y="344.88" as="targetPoint" />
          </mxGeometry>
        </mxCell>
        <mxCell id="gXaUUz2raYhDpuN3xTJB-133" value="" style="endArrow=classic;html=1;rounded=0;" parent="1" edge="1">
          <mxGeometry width="50" height="50" relative="1" as="geometry">
            <mxPoint x="190" y="374.85" as="sourcePoint" />
            <mxPoint x="240" y="374.85" as="targetPoint" />
          </mxGeometry>
        </mxCell>
        <mxCell id="gXaUUz2raYhDpuN3xTJB-134" value="" style="endArrow=classic;html=1;rounded=0;" parent="1" edge="1">
          <mxGeometry width="50" height="50" relative="1" as="geometry">
            <mxPoint x="190" y="404.85" as="sourcePoint" />
            <mxPoint x="240" y="404.85" as="targetPoint" />
          </mxGeometry>
        </mxCell>
        <mxCell id="gXaUUz2raYhDpuN3xTJB-135" value="" style="endArrow=classic;html=1;rounded=0;" parent="1" edge="1">
          <mxGeometry width="50" height="50" relative="1" as="geometry">
            <mxPoint x="190" y="434.85" as="sourcePoint" />
            <mxPoint x="240" y="434.85" as="targetPoint" />
          </mxGeometry>
        </mxCell>
        <mxCell id="gXaUUz2raYhDpuN3xTJB-136" value="" style="endArrow=classic;html=1;rounded=0;" parent="1" edge="1">
          <mxGeometry width="50" height="50" relative="1" as="geometry">
            <mxPoint x="190" y="464.92" as="sourcePoint" />
            <mxPoint x="240" y="464.92" as="targetPoint" />
          </mxGeometry>
        </mxCell>
        <mxCell id="gXaUUz2raYhDpuN3xTJB-137" value="" style="endArrow=classic;html=1;rounded=0;" parent="1" edge="1">
          <mxGeometry width="50" height="50" relative="1" as="geometry">
            <mxPoint x="190" y="494.92" as="sourcePoint" />
            <mxPoint x="240" y="494.92" as="targetPoint" />
          </mxGeometry>
        </mxCell>
        <mxCell id="gXaUUz2raYhDpuN3xTJB-138" value="" style="endArrow=classic;html=1;rounded=0;" parent="1" edge="1">
          <mxGeometry width="50" height="50" relative="1" as="geometry">
            <mxPoint x="190" y="524.93" as="sourcePoint" />
            <mxPoint x="240" y="524.93" as="targetPoint" />
          </mxGeometry>
        </mxCell>
        <mxCell id="gXaUUz2raYhDpuN3xTJB-139" value="" style="endArrow=classic;html=1;rounded=0;" parent="1" edge="1">
          <mxGeometry width="50" height="50" relative="1" as="geometry">
            <mxPoint x="190" y="554.9300000000001" as="sourcePoint" />
            <mxPoint x="240" y="554.9300000000001" as="targetPoint" />
          </mxGeometry>
        </mxCell>
        <mxCell id="gXaUUz2raYhDpuN3xTJB-140" value="" style="endArrow=classic;html=1;rounded=0;" parent="1" edge="1">
          <mxGeometry width="50" height="50" relative="1" as="geometry">
            <mxPoint x="190" y="584.9300000000001" as="sourcePoint" />
            <mxPoint x="240" y="584.9300000000001" as="targetPoint" />
          </mxGeometry>
        </mxCell>
        <mxCell id="gXaUUz2raYhDpuN3xTJB-141" value="" style="endArrow=classic;html=1;rounded=0;" parent="1" edge="1">
          <mxGeometry width="50" height="50" relative="1" as="geometry">
            <mxPoint x="190" y="614.9300000000001" as="sourcePoint" />
            <mxPoint x="240" y="614.9300000000001" as="targetPoint" />
          </mxGeometry>
        </mxCell>
        <mxCell id="gXaUUz2raYhDpuN3xTJB-142" value="" style="endArrow=classic;html=1;rounded=0;" parent="1" edge="1">
          <mxGeometry width="50" height="50" relative="1" as="geometry">
            <mxPoint x="190" y="644.9300000000001" as="sourcePoint" />
            <mxPoint x="240" y="644.9300000000001" as="targetPoint" />
          </mxGeometry>
        </mxCell>
        <mxCell id="gXaUUz2raYhDpuN3xTJB-143" value="" style="endArrow=classic;html=1;rounded=0;" parent="1" edge="1">
          <mxGeometry width="50" height="50" relative="1" as="geometry">
            <mxPoint x="190" y="674.9300000000001" as="sourcePoint" />
            <mxPoint x="240" y="674.9300000000001" as="targetPoint" />
          </mxGeometry>
        </mxCell>
        <mxCell id="gXaUUz2raYhDpuN3xTJB-144" value="" style="endArrow=classic;html=1;rounded=0;" parent="1" edge="1">
          <mxGeometry width="50" height="50" relative="1" as="geometry">
            <mxPoint x="190" y="704.9300000000001" as="sourcePoint" />
            <mxPoint x="240" y="704.9300000000001" as="targetPoint" />
          </mxGeometry>
        </mxCell>
        <mxCell id="gXaUUz2raYhDpuN3xTJB-145" value="" style="endArrow=classic;html=1;rounded=0;" parent="1" edge="1">
          <mxGeometry width="50" height="50" relative="1" as="geometry">
            <mxPoint x="190" y="734.9300000000001" as="sourcePoint" />
            <mxPoint x="240" y="734.9300000000001" as="targetPoint" />
          </mxGeometry>
        </mxCell>
        <mxCell id="gXaUUz2raYhDpuN3xTJB-146" value="" style="endArrow=classic;html=1;rounded=0;" parent="1" edge="1">
          <mxGeometry width="50" height="50" relative="1" as="geometry">
            <mxPoint x="190" y="764.9300000000001" as="sourcePoint" />
            <mxPoint x="240" y="764.9300000000001" as="targetPoint" />
          </mxGeometry>
        </mxCell>
        <mxCell id="gXaUUz2raYhDpuN3xTJB-147" value="" style="endArrow=classic;html=1;rounded=0;" parent="1" edge="1">
          <mxGeometry width="50" height="50" relative="1" as="geometry">
            <mxPoint x="190" y="794.9300000000001" as="sourcePoint" />
            <mxPoint x="240" y="794.9300000000001" as="targetPoint" />
          </mxGeometry>
        </mxCell>
        <mxCell id="gXaUUz2raYhDpuN3xTJB-148" value="" style="endArrow=classic;html=1;rounded=0;" parent="1" edge="1">
          <mxGeometry width="50" height="50" relative="1" as="geometry">
            <mxPoint x="190" y="824.9300000000001" as="sourcePoint" />
            <mxPoint x="240" y="824.9300000000001" as="targetPoint" />
          </mxGeometry>
        </mxCell>
        <mxCell id="gXaUUz2raYhDpuN3xTJB-149" value="" style="endArrow=classic;html=1;rounded=0;" parent="1" edge="1">
          <mxGeometry width="50" height="50" relative="1" as="geometry">
            <mxPoint x="190" y="854.9300000000001" as="sourcePoint" />
            <mxPoint x="240" y="854.9300000000001" as="targetPoint" />
          </mxGeometry>
        </mxCell>
        <mxCell id="gXaUUz2raYhDpuN3xTJB-150" value="" style="endArrow=classic;html=1;rounded=0;" parent="1" edge="1">
          <mxGeometry width="50" height="50" relative="1" as="geometry">
            <mxPoint x="190" y="884.9300000000001" as="sourcePoint" />
            <mxPoint x="240" y="884.9300000000001" as="targetPoint" />
          </mxGeometry>
        </mxCell>
        <mxCell id="gXaUUz2raYhDpuN3xTJB-151" value="" style="endArrow=classic;html=1;rounded=0;" parent="1" edge="1">
          <mxGeometry width="50" height="50" relative="1" as="geometry">
            <mxPoint x="190" y="914.9300000000001" as="sourcePoint" />
            <mxPoint x="240" y="914.9300000000001" as="targetPoint" />
          </mxGeometry>
        </mxCell>
        <mxCell id="gXaUUz2raYhDpuN3xTJB-152" value="" style="endArrow=classic;html=1;rounded=0;" parent="1" edge="1">
          <mxGeometry width="50" height="50" relative="1" as="geometry">
            <mxPoint x="190" y="944.9300000000001" as="sourcePoint" />
            <mxPoint x="240" y="944.9300000000001" as="targetPoint" />
          </mxGeometry>
        </mxCell>
        <mxCell id="gXaUUz2raYhDpuN3xTJB-153" value="" style="endArrow=classic;html=1;rounded=0;" parent="1" edge="1">
          <mxGeometry width="50" height="50" relative="1" as="geometry">
            <mxPoint x="190" y="974.9300000000001" as="sourcePoint" />
            <mxPoint x="240" y="974.9300000000001" as="targetPoint" />
          </mxGeometry>
        </mxCell>
        <mxCell id="gXaUUz2raYhDpuN3xTJB-154" value="" style="endArrow=classic;html=1;rounded=0;" parent="1" edge="1">
          <mxGeometry width="50" height="50" relative="1" as="geometry">
            <mxPoint x="190" y="1004.9300000000001" as="sourcePoint" />
            <mxPoint x="240" y="1004.9300000000001" as="targetPoint" />
          </mxGeometry>
        </mxCell>
        <mxCell id="gXaUUz2raYhDpuN3xTJB-155" value="" style="endArrow=classic;html=1;rounded=0;" parent="1" edge="1">
          <mxGeometry width="50" height="50" relative="1" as="geometry">
            <mxPoint x="190" y="1034.93" as="sourcePoint" />
            <mxPoint x="240" y="1034.93" as="targetPoint" />
          </mxGeometry>
        </mxCell>
        <mxCell id="gXaUUz2raYhDpuN3xTJB-156" value="abacate" style="rounded=0;whiteSpace=wrap;html=1;labelBackgroundColor=none;fillColor=none;" parent="1" vertex="1">
          <mxGeometry x="260" y="275" width="70" height="20" as="geometry" />
        </mxCell>
        <mxCell id="gXaUUz2raYhDpuN3xTJB-157" value="amor" style="rounded=0;whiteSpace=wrap;html=1;labelBackgroundColor=none;fillColor=none;" parent="1" vertex="1">
          <mxGeometry x="330" y="275" width="70" height="20" as="geometry" />
        </mxCell>
        <mxCell id="gXaUUz2raYhDpuN3xTJB-159" value="bala" style="rounded=0;whiteSpace=wrap;html=1;labelBackgroundColor=none;fillColor=none;" parent="1" vertex="1">
          <mxGeometry x="260" y="305" width="70" height="20" as="geometry" />
        </mxCell>
        <mxCell id="gXaUUz2raYhDpuN3xTJB-160" value="bola" style="rounded=0;whiteSpace=wrap;html=1;labelBackgroundColor=none;fillColor=none;" parent="1" vertex="1">
          <mxGeometry x="330" y="305" width="70" height="20" as="geometry" />
        </mxCell>
        <mxCell id="gXaUUz2raYhDpuN3xTJB-161" value="carinho" style="rounded=0;whiteSpace=wrap;html=1;labelBackgroundColor=none;fillColor=none;" parent="1" vertex="1">
          <mxGeometry x="260" y="335" width="70" height="20" as="geometry" />
        </mxCell>
        <mxCell id="gXaUUz2raYhDpuN3xTJB-162" value="" style="rounded=0;whiteSpace=wrap;html=1;labelBackgroundColor=none;fillColor=none;" parent="1" vertex="1">
          <mxGeometry x="260" y="365" width="70" height="20" as="geometry" />
        </mxCell>
        <mxCell id="gXaUUz2raYhDpuN3xTJB-163" value="estima" style="rounded=0;whiteSpace=wrap;html=1;labelBackgroundColor=none;fillColor=none;" parent="1" vertex="1">
          <mxGeometry x="260" y="395" width="70" height="20" as="geometry" />
        </mxCell>
        <mxCell id="gXaUUz2raYhDpuN3xTJB-164" value="" style="rounded=0;whiteSpace=wrap;html=1;labelBackgroundColor=none;fillColor=none;" parent="1" vertex="1">
          <mxGeometry x="260" y="425" width="70" height="20" as="geometry" />
        </mxCell>
        <mxCell id="gXaUUz2raYhDpuN3xTJB-165" value="" style="rounded=0;whiteSpace=wrap;html=1;labelBackgroundColor=none;fillColor=none;" parent="1" vertex="1">
          <mxGeometry x="260" y="455" width="70" height="20" as="geometry" />
        </mxCell>
        <mxCell id="gXaUUz2raYhDpuN3xTJB-166" value="" style="rounded=0;whiteSpace=wrap;html=1;labelBackgroundColor=none;fillColor=none;" parent="1" vertex="1">
          <mxGeometry x="260" y="485" width="70" height="20" as="geometry" />
        </mxCell>
        <mxCell id="gXaUUz2raYhDpuN3xTJB-167" value="" style="rounded=0;whiteSpace=wrap;html=1;labelBackgroundColor=none;fillColor=none;" parent="1" vertex="1">
          <mxGeometry x="260" y="515" width="70" height="20" as="geometry" />
        </mxCell>
        <mxCell id="gXaUUz2raYhDpuN3xTJB-168" value="" style="rounded=0;whiteSpace=wrap;html=1;labelBackgroundColor=none;fillColor=none;" parent="1" vertex="1">
          <mxGeometry x="260" y="545" width="70" height="20" as="geometry" />
        </mxCell>
        <mxCell id="gXaUUz2raYhDpuN3xTJB-169" value="" style="rounded=0;whiteSpace=wrap;html=1;labelBackgroundColor=none;fillColor=none;" parent="1" vertex="1">
          <mxGeometry x="260" y="575" width="70" height="20" as="geometry" />
        </mxCell>
        <mxCell id="gXaUUz2raYhDpuN3xTJB-170" value="" style="rounded=0;whiteSpace=wrap;html=1;labelBackgroundColor=none;fillColor=none;" parent="1" vertex="1">
          <mxGeometry x="260" y="605" width="70" height="20" as="geometry" />
        </mxCell>
        <mxCell id="gXaUUz2raYhDpuN3xTJB-171" value="" style="rounded=0;whiteSpace=wrap;html=1;labelBackgroundColor=none;fillColor=none;" parent="1" vertex="1">
          <mxGeometry x="260" y="635" width="70" height="20" as="geometry" />
        </mxCell>
        <mxCell id="gXaUUz2raYhDpuN3xTJB-172" value="" style="rounded=0;whiteSpace=wrap;html=1;labelBackgroundColor=none;fillColor=none;" parent="1" vertex="1">
          <mxGeometry x="260" y="665" width="70" height="20" as="geometry" />
        </mxCell>
        <mxCell id="gXaUUz2raYhDpuN3xTJB-173" value="" style="rounded=0;whiteSpace=wrap;html=1;labelBackgroundColor=none;fillColor=none;" parent="1" vertex="1">
          <mxGeometry x="260" y="695" width="70" height="20" as="geometry" />
        </mxCell>
        <mxCell id="gXaUUz2raYhDpuN3xTJB-174" value="" style="rounded=0;whiteSpace=wrap;html=1;labelBackgroundColor=none;fillColor=none;" parent="1" vertex="1">
          <mxGeometry x="260" y="725" width="70" height="20" as="geometry" />
        </mxCell>
        <mxCell id="gXaUUz2raYhDpuN3xTJB-175" value="" style="rounded=0;whiteSpace=wrap;html=1;labelBackgroundColor=none;fillColor=none;" parent="1" vertex="1">
          <mxGeometry x="260" y="755" width="70" height="20" as="geometry" />
        </mxCell>
        <mxCell id="gXaUUz2raYhDpuN3xTJB-176" value="" style="rounded=0;whiteSpace=wrap;html=1;labelBackgroundColor=none;fillColor=none;" parent="1" vertex="1">
          <mxGeometry x="260" y="785" width="70" height="20" as="geometry" />
        </mxCell>
        <mxCell id="gXaUUz2raYhDpuN3xTJB-177" value="" style="rounded=0;whiteSpace=wrap;html=1;labelBackgroundColor=none;fillColor=none;" parent="1" vertex="1">
          <mxGeometry x="260" y="815" width="70" height="20" as="geometry" />
        </mxCell>
        <mxCell id="gXaUUz2raYhDpuN3xTJB-178" value="" style="rounded=0;whiteSpace=wrap;html=1;labelBackgroundColor=none;fillColor=none;" parent="1" vertex="1">
          <mxGeometry x="260" y="845" width="70" height="20" as="geometry" />
        </mxCell>
        <mxCell id="gXaUUz2raYhDpuN3xTJB-179" value="" style="rounded=0;whiteSpace=wrap;html=1;labelBackgroundColor=none;fillColor=none;" parent="1" vertex="1">
          <mxGeometry x="260" y="875" width="70" height="20" as="geometry" />
        </mxCell>
        <mxCell id="gXaUUz2raYhDpuN3xTJB-180" value="" style="rounded=0;whiteSpace=wrap;html=1;labelBackgroundColor=none;fillColor=none;" parent="1" vertex="1">
          <mxGeometry x="260" y="905" width="70" height="20" as="geometry" />
        </mxCell>
        <mxCell id="gXaUUz2raYhDpuN3xTJB-181" value="" style="rounded=0;whiteSpace=wrap;html=1;labelBackgroundColor=none;fillColor=none;" parent="1" vertex="1">
          <mxGeometry x="260" y="935" width="70" height="20" as="geometry" />
        </mxCell>
        <mxCell id="gXaUUz2raYhDpuN3xTJB-182" value="" style="rounded=0;whiteSpace=wrap;html=1;labelBackgroundColor=none;fillColor=none;" parent="1" vertex="1">
          <mxGeometry x="260" y="965" width="70" height="20" as="geometry" />
        </mxCell>
        <mxCell id="gXaUUz2raYhDpuN3xTJB-183" value="" style="rounded=0;whiteSpace=wrap;html=1;labelBackgroundColor=none;fillColor=none;" parent="1" vertex="1">
          <mxGeometry x="260" y="995" width="70" height="20" as="geometry" />
        </mxCell>
        <mxCell id="gXaUUz2raYhDpuN3xTJB-184" value="" style="rounded=0;whiteSpace=wrap;html=1;labelBackgroundColor=none;fillColor=none;" parent="1" vertex="1">
          <mxGeometry x="260" y="1025" width="70" height="20" as="geometry" />
        </mxCell>
        <mxCell id="gXaUUz2raYhDpuN3xTJB-187" value="carinho" style="rounded=0;whiteSpace=wrap;html=1;labelBackgroundColor=none;fillColor=none;" parent="1" vertex="1">
          <mxGeometry x="405" y="230" width="70" height="20" as="geometry" />
        </mxCell>
        <mxCell id="gXaUUz2raYhDpuN3xTJB-191" value="" style="endArrow=classic;html=1;rounded=0;exitX=0.5;exitY=0;exitDx=0;exitDy=0;" parent="1" source="gXaUUz2raYhDpuN3xTJB-157" edge="1">
          <mxGeometry width="50" height="50" relative="1" as="geometry">
            <mxPoint x="360" y="270" as="sourcePoint" />
            <mxPoint x="400" y="240" as="targetPoint" />
            <Array as="points">
              <mxPoint x="365" y="250" />
              <mxPoint x="365" y="240" />
            </Array>
          </mxGeometry>
        </mxCell>
        <mxCell id="gXaUUz2raYhDpuN3xTJB-192" value="estima" style="rounded=0;whiteSpace=wrap;html=1;labelBackgroundColor=none;fillColor=none;" parent="1" vertex="1">
          <mxGeometry x="475" y="230" width="70" height="20" as="geometry" />
        </mxCell>
        <mxCell id="gXaUUz2raYhDpuN3xTJB-195" value="" style="endArrow=classic;html=1;rounded=0;exitX=1;exitY=0.5;exitDx=0;exitDy=0;" parent="1" source="gXaUUz2raYhDpuN3xTJB-161" edge="1">
          <mxGeometry width="50" height="50" relative="1" as="geometry">
            <mxPoint x="370" y="370" as="sourcePoint" />
            <mxPoint x="420" y="345" as="targetPoint" />
          </mxGeometry>
        </mxCell>
        <mxCell id="gXaUUz2raYhDpuN3xTJB-196" value="amor" style="rounded=0;whiteSpace=wrap;html=1;labelBackgroundColor=none;fillColor=none;" parent="1" vertex="1">
          <mxGeometry x="425" y="335" width="70" height="20" as="geometry" />
        </mxCell>
        <mxCell id="gXaUUz2raYhDpuN3xTJB-201" value="" style="endArrow=classic;html=1;rounded=0;exitX=1;exitY=0.5;exitDx=0;exitDy=0;" parent="1" edge="1">
          <mxGeometry width="50" height="50" relative="1" as="geometry">
            <mxPoint x="330" y="404.87" as="sourcePoint" />
            <mxPoint x="420" y="404.87" as="targetPoint" />
          </mxGeometry>
        </mxCell>
        <mxCell id="gXaUUz2raYhDpuN3xTJB-202" value="amor" style="rounded=0;whiteSpace=wrap;html=1;labelBackgroundColor=none;fillColor=none;" parent="1" vertex="1">
          <mxGeometry x="425" y="395" width="70" height="20" as="geometry" />
        </mxCell>
      </root>
    </mxGraphModel>
  </diagram>
</mxfile>
